<?xml version="1.0" encoding="utf-8"?>
<!-- Generator: Adobe Illustrator 25.4.1, SVG Export Plug-In . SVG Version: 6.00 Build 0)  -->
<svg version="1.1" id="female1" xmlns:sketch="http://www.bohemiancoding.com/sketch/ns"
	 xmlns="http://www.w3.org/2000/svg" xmlns:xlink="http://www.w3.org/1999/xlink" x="0px" y="0px" viewBox="0 0 100 100"
	 style="enable-background:new 0 0 100 100;" xml:space="preserve">
<style type="text/css">
	.st0{fill:#E92828;}
	.st1{clip-path:url(#SVGID_00000070821673287148062500000008310521519447570078_);fill:#150300;}
	.st2{clip-path:url(#SVGID_00000060732270001753226290000014242408282244000129_);fill:#150400;}
	.st3{clip-path:url(#SVGID_00000004509800273823608410000002021686947906492821_);fill:#E6C19C;}
	.st4{clip-path:url(#SVGID_00000151519892462581379760000018120766569610491543_);}
	.st5{clip-path:url(#SVGID_00000135659848688107161310000003189868733174731146_);fill:#D4B08C;}
	.st6{clip-path:url(#SVGID_00000042706594385431396140000012776926626307761295_);fill:#6B363E;}
	.st7{clip-path:url(#SVGID_00000142893510275842902240000003932650255955862410_);}
	.st8{clip-path:url(#SVGID_00000119829015437394502090000009400846850373580426_);fill:#FFFFFF;}
	.st9{fill:#F2CEA5;}
	.st10{fill:#A3705F;}
	.st11{fill:#262626;}
	.st12{fill:#CC9872;}
	.st13{fill:#BB8660;}
	.st14{fill:#150100;}
	.st15{clip-path:url(#SVGID_00000172403354897770872720000011348378579143239592_);fill:#2A0A00;}
</style>
<circle class="st0" cx="50" cy="50" r="50"/>
<g>
	<g>
		<defs>
			<circle id="SVGID_1_" cx="50" cy="50" r="50"/>
		</defs>
		<clipPath id="SVGID_00000133504398663599833930000012983541096611286930_">
			<use xlink:href="#SVGID_1_"  style="overflow:visible;"/>
		</clipPath>
		
			<rect x="24" y="41" style="clip-path:url(#SVGID_00000133504398663599833930000012983541096611286930_);fill:#150300;" width="31" height="43"/>
	</g>
	<g>
		<defs>
			<circle id="SVGID_00000028308740715175734780000003447367348537824940_" cx="50" cy="50" r="50"/>
		</defs>
		<clipPath id="SVGID_00000134227327819079951780000000845811717454423936_">
			<use xlink:href="#SVGID_00000028308740715175734780000003447367348537824940_"  style="overflow:visible;"/>
		</clipPath>
		
			<rect x="45" y="37" style="clip-path:url(#SVGID_00000134227327819079951780000000845811717454423936_);fill:#150400;" width="31" height="47"/>
	</g>
	<g>
		<defs>
			<circle id="SVGID_00000013878704148339831980000006339557298775961786_" cx="50" cy="50" r="50"/>
		</defs>
		<clipPath id="SVGID_00000158733240056402847360000006214226369817418162_">
			<use xlink:href="#SVGID_00000013878704148339831980000006339557298775961786_"  style="overflow:visible;"/>
		</clipPath>
		<path style="clip-path:url(#SVGID_00000158733240056402847360000006214226369817418162_);fill:#E6C19C;" d="M63,71.9
			c0,4,4.7,5.2,7.1,5.8c7.6,2,22.8,5.9,22.8,5.9c3.2,1.1,5.7,3.5,7.1,6.6v9.8H0v-9.8c1.3-3.1,3.9-5.5,7.1-6.6c0,0,15.2-3.9,22.8-5.9
			c2.4-0.6,7.1-1.8,7.1-5.8S37,61,37,61h26C63,61,63,67.9,63,71.9z"/>
	</g>
	<g>
		<defs>
			<circle id="SVGID_00000039816874074651179360000012205415814832358814_" cx="50" cy="50" r="50"/>
		</defs>
		<clipPath id="SVGID_00000039135027718763083350000014371643807884995756_">
			<use xlink:href="#SVGID_00000039816874074651179360000012205415814832358814_"  style="overflow:visible;"/>
		</clipPath>
		<g style="clip-path:url(#SVGID_00000039135027718763083350000014371643807884995756_);">
			<g>
				<defs>
					<path id="SVGID_00000054978710297668364040000007508743567106173627_" d="M63,71.9c0,4,4.7,5.2,7.1,5.8
						c7.6,2,22.8,5.9,22.8,5.9c3.2,1.1,5.7,3.5,7.1,6.6v9.8H0v-9.8c1.3-3.1,3.9-5.5,7.1-6.6c0,0,15.2-3.9,22.8-5.9
						c2.4-0.6,7.1-1.8,7.1-5.8S37,61,37,61h26C63,61,63,67.9,63,71.9z"/>
				</defs>
				<clipPath id="SVGID_00000100357227377470290620000002937974926213422231_">
					<use xlink:href="#SVGID_00000054978710297668364040000007508743567106173627_"  style="overflow:visible;"/>
				</clipPath>
				<path style="clip-path:url(#SVGID_00000100357227377470290620000002937974926213422231_);fill:#D4B08C;" d="M50.2,11h0.2l0,0
					c3.3,0,8.2,0.2,11.4,2c3.3,1.9,7.3,5.6,8.5,12.1c2.4,13.7-2.1,35.4-6.3,42.4c-4,6.7-9.8,9.2-13.5,9.4h-0.1h-0.2H50h-0.1
					c-3.7-0.2-9.5-2.7-13.5-9.4c-4.2-7-8.7-28.7-6.3-42.4c1.2-6.5,5.2-10.2,8.5-12.1c3.2-1.8,8.1-2,11.4-2l0,0H50.2z"/>
			</g>
			<g>
				<defs>
					<path id="SVGID_00000060025317922022978500000002569974804715477948_" d="M63,71.9c0,4,4.7,5.2,7.1,5.8
						c7.6,2,22.8,5.9,22.8,5.9c3.2,1.1,5.7,3.5,7.1,6.6v9.8H0v-9.8c1.3-3.1,3.9-5.5,7.1-6.6c0,0,15.2-3.9,22.8-5.9
						c2.4-0.6,7.1-1.8,7.1-5.8S37,61,37,61h26C63,61,63,67.9,63,71.9z"/>
				</defs>
				<clipPath id="SVGID_00000151511189438989489110000007211136644410512020_">
					<use xlink:href="#SVGID_00000060025317922022978500000002569974804715477948_"  style="overflow:visible;"/>
				</clipPath>
				<path style="clip-path:url(#SVGID_00000151511189438989489110000007211136644410512020_);fill:#6B363E;" d="M0,58h100v42H0V58z
					 M50,89c12.1,0,20.8-14.1,20.8-14.1S60.9,59,50,59S29.2,74.9,29.2,74.9S37.9,89,50,89z"/>
			</g>
			<g>
				<defs>
					<path id="SVGID_00000032626143829638390050000016575153328017942944_" d="M63,71.9c0,4,4.7,5.2,7.1,5.8
						c7.6,2,22.8,5.9,22.8,5.9c3.2,1.1,5.7,3.5,7.1,6.6v9.8H0v-9.8c1.3-3.1,3.9-5.5,7.1-6.6c0,0,15.2-3.9,22.8-5.9
						c2.4-0.6,7.1-1.8,7.1-5.8S37,61,37,61h26C63,61,63,67.9,63,71.9z"/>
				</defs>
				<clipPath id="SVGID_00000057841254875303825160000015876182865792616087_">
					<use xlink:href="#SVGID_00000032626143829638390050000016575153328017942944_"  style="overflow:visible;"/>
				</clipPath>
				<g style="clip-path:url(#SVGID_00000057841254875303825160000015876182865792616087_);">
					<g>
						<defs>
							<path id="SVGID_00000109720697190023489550000014103646360007109791_" d="M0,58h100v42H0V58z M50,89
								c12.1,0,20.8-14.1,20.8-14.1S60.9,59,50,59S29.2,74.9,29.2,74.9S37.9,89,50,89z"/>
						</defs>
						<clipPath id="SVGID_00000068656971719688567430000002943250293115497394_">
							<use xlink:href="#SVGID_00000109720697190023489550000014103646360007109791_"  style="overflow:visible;"/>
						</clipPath>
						<path style="clip-path:url(#SVGID_00000068656971719688567430000002943250293115497394_);fill:#FFFFFF;" d="M72.4,77.7
							c-1.3,10-9.3,17.3-9.3,17.3s-8.2-7-10.2-7.6c12.7-7.6,17.1-12,17.1-12S73.6,67.7,72.4,77.7z M27.7,77.7C29,87.8,37,95,37,95
							s8.2-7,10.2-7.6c-12.7-7.6-17.1-12-17.1-12S26.5,67.7,27.7,77.7z"/>
					</g>
				</g>
			</g>
		</g>
	</g>
</g>
<path class="st9" d="M50,16c19.1,0,20.7,13.8,20.8,15.1c1.1,11.9-3,28.1-6.8,33.7c-4,5.9-9.8,8.1-13.5,8.3c-0.2,0-0.2,0-0.3,0L50,73
	c-3.8-0.2-9.6-2.4-13.6-8.3c-3.8-5.6-7.9-21.8-6.8-33.8C29.7,29.7,30.9,16,50,16z"/>
<path class="st10" d="M45.8,61c-0.2,0-0.4,0.4-0.3,0.7c0.9,2.1,2.3,3.3,4.2,3.4c2,0.2,4.1-1.2,5.2-3.4c0.1-0.3,0-0.7-0.3-0.7H45.8z"
	/>
<circle class="st11" cx="59" cy="45" r="2"/>
<circle class="st11" cx="41" cy="45" r="2"/>
<path class="st12" d="M45.9,42.2c-1.5-1.9-3.8-2.3-5.6-2.2c-3,0-4.3,1-4.3,1l-1.3-1.5c0.3-0.2,1.9-1.5,5.7-1.5c3,0,5.6,1,7.2,3
	L45.9,42.2z"/>
<path class="st13" d="M53,55.4c-1.3-1.7-3.4-5.4-2.3-10.9c0.8-4.1,4-6.5,8.6-6.5h0.1c3.8,0,5.4,1.3,5.5,1.4L63.8,41l0.6-0.8L63.8,41
	c0,0-1.3-1-4.3-1c-2.1,0-5.9,0.6-6.7,4.9c-1,4.7,0.8,7.8,1.9,9.3L53,55.4z"/>
<path class="st14" d="M24,45.3c2.4-0.9,7.2-3.5,12-11.9c6.8-12,17.2-6.5,20.5-2.6c0.4,0.4,0.9,0.2,0.9,0.2s8.6-3.7,12,3.8
	c2.5,5.5,3.9,7.1,6.5,8.8v-7.9C76,20.2,66.5,20,66.1,20s-0.7,0-0.9-0.6C64.3,16.5,55,6.9,39.4,13S24,41,24,41V45.3z"/>
<g>
	<g>
		<defs>
			<path id="SVGID_00000077322702631185809840000015633758604849417151_" d="M24,45.3c2.4-0.9,7.2-3.5,12-11.9
				c6.8-12,17.2-6.5,20.5-2.6c0.4,0.4,0.9,0.2,0.9,0.2s8.6-3.7,12,3.8c2.5,5.5,3.9,7.1,6.5,8.8v-7.9C76,20.2,66.5,20,66.1,20
				s-0.7,0-0.9-0.6C64.3,16.5,55,6.9,39.4,13S24,41,24,41V45.3z"/>
		</defs>
		<clipPath id="SVGID_00000110464091606322785760000006289740296940793765_">
			<use xlink:href="#SVGID_00000077322702631185809840000015633758604849417151_"  style="overflow:visible;"/>
		</clipPath>
		<path style="clip-path:url(#SVGID_00000110464091606322785760000006289740296940793765_);fill:#2A0A00;" d="M56.8,31.6
			c0,0,3-7.5,9-12.1S77,26.9,77,26.9l0.3,19.6L56.8,31.6z"/>
	</g>
</g>
</svg>
