<?xml version="1.0" encoding="utf-8"?>
<!-- Generator: Adobe Illustrator 25.4.1, SVG Export Plug-In . SVG Version: 6.00 Build 0)  -->
<svg version="1.1" id="female1" xmlns:sketch="http://www.bohemiancoding.com/sketch/ns"
	 xmlns="http://www.w3.org/2000/svg" xmlns:xlink="http://www.w3.org/1999/xlink" x="0px" y="0px" viewBox="-27 24 100 100"
	 style="enable-background:new -27 24 100 100;" xml:space="preserve">
<style type="text/css">
	.st0{fill:#E92828;}
	.st1{clip-path:url(#SVGID_00000087376448133257637230000015215661023597313183_);fill:#150300;}
	.st2{clip-path:url(#SVGID_00000087376448133257637230000015215661023597313183_);fill:#150400;}
	.st3{clip-path:url(#SVGID_00000087376448133257637230000015215661023597313183_);fill:#E6C19C;}
	.st4{clip-path:url(#SVGID_00000087376448133257637230000015215661023597313183_);}
	.st5{clip-path:url(#SVGID_00000163756383228226664410000011008356175532826266_);fill:#D4B08C;}
	.st6{clip-path:url(#SVGID_00000163756383228226664410000011008356175532826266_);fill:#6B363E;}
	.st7{clip-path:url(#SVGID_00000163756383228226664410000011008356175532826266_);}
	.st8{clip-path:url(#SVGID_00000057136420670355476990000011504295309812588932_);fill:#FFFFFF;}
	.st9{fill:#F2CEA5;}
	.st10{fill:#A3705F;}
	.st11{fill:#262626;}
	.st12{fill:#CC9872;}
	.st13{fill:#BB8660;}
	.st14{fill:#150100;}
	.st15{clip-path:url(#SVGID_00000011000617601038656890000017836083467620781709_);fill:#2A0A00;}
</style>
<circle class="st0" cx="23" cy="74" r="50"/>
<g>
	<defs>
		<circle id="SVGID_1_" cx="23" cy="74" r="50"/>
	</defs>
	<clipPath id="SVGID_00000039828428790735050090000000647594548335766662_">
		<use xlink:href="#SVGID_1_"  style="overflow:visible;"/>
	</clipPath>
	
		<rect x="-3" y="65" style="clip-path:url(#SVGID_00000039828428790735050090000000647594548335766662_);fill:#150300;" width="31" height="43"/>
	
		<rect x="18" y="61" style="clip-path:url(#SVGID_00000039828428790735050090000000647594548335766662_);fill:#150400;" width="31" height="47"/>
	<path style="clip-path:url(#SVGID_00000039828428790735050090000000647594548335766662_);fill:#E6C19C;" d="M36,95.9
		c0,4,4.7,5.2,7.1,5.8c7.6,2,22.8,5.9,22.8,5.9c3.2,1.1,5.7,3.5,7.1,6.6v9.8H-27v-9.8c1.3-3.1,3.9-5.5,7.1-6.6
		c0,0,15.2-3.9,22.8-5.9c2.4-0.6,7.1-1.8,7.1-5.8c0-4,0-10.9,0-10.9h26C36,85,36,91.9,36,95.9z"/>
	<g style="clip-path:url(#SVGID_00000039828428790735050090000000647594548335766662_);">
		<defs>
			<path id="SVGID_00000031909961891727775030000018133194301364537763_" d="M36,95.9c0,4,4.7,5.2,7.1,5.8c7.6,2,22.8,5.9,22.8,5.9
				c3.2,1.1,5.7,3.5,7.1,6.6v9.8H-27v-9.8c1.3-3.1,3.9-5.5,7.1-6.6c0,0,15.2-3.9,22.8-5.9c2.4-0.6,7.1-1.8,7.1-5.8
				c0-4,0-10.9,0-10.9h26C36,85,36,91.9,36,95.9z"/>
		</defs>
		<clipPath id="SVGID_00000064320806391482520680000011145822908720865666_">
			<use xlink:href="#SVGID_00000031909961891727775030000018133194301364537763_"  style="overflow:visible;"/>
		</clipPath>
		<path style="clip-path:url(#SVGID_00000064320806391482520680000011145822908720865666_);fill:#D4B08C;" d="M23.2,35l0.2,0l0,0
			c3.3,0,8.2,0.2,11.4,2c3.3,1.9,7.3,5.6,8.5,12.1c2.4,13.7-2.1,35.4-6.3,42.4c-4,6.7-9.8,9.2-13.5,9.4l-0.1,0l-0.2,0l-0.2,0l-0.1,0
			c-3.7-0.2-9.5-2.7-13.5-9.4c-4.2-7-8.7-28.7-6.3-42.4c1.2-6.5,5.2-10.2,8.5-12.1c3.2-1.8,8.1-2,11.4-2l0,0L23.2,35z"/>
		<path style="clip-path:url(#SVGID_00000064320806391482520680000011145822908720865666_);fill:#6B363E;" d="M-27,82H73v42H-27V82z
			 M23,113c12.1,0,20.8-14.1,20.8-14.1S33.9,83,23,83S2.2,98.9,2.2,98.9S10.9,113,23,113z"/>
		<g style="clip-path:url(#SVGID_00000064320806391482520680000011145822908720865666_);">
			<defs>
				<path id="SVGID_00000131336395743100050460000014460064346002572218_" d="M-27,82H73v42H-27V82z M23,113
					c12.1,0,20.8-14.1,20.8-14.1S33.9,83,23,83S2.2,98.9,2.2,98.9S10.9,113,23,113z"/>
			</defs>
			<clipPath id="SVGID_00000170263596247353502250000008522351008242352551_">
				<use xlink:href="#SVGID_00000131336395743100050460000014460064346002572218_"  style="overflow:visible;"/>
			</clipPath>
			<path style="clip-path:url(#SVGID_00000170263596247353502250000008522351008242352551_);fill:#FFFFFF;" d="M45.4,101.7
				c-1.3,10-9.3,17.3-9.3,17.3s-8.2-7-10.2-7.6c12.7-7.6,17.1-12,17.1-12S46.6,91.7,45.4,101.7z M0.7,101.7C2,111.8,10,119,10,119
				s8.2-7,10.2-7.6c-12.7-7.6-17.1-12-17.1-12S-0.5,91.7,0.7,101.7z"/>
		</g>
	</g>
</g>
<path class="st9" d="M23,40c19.1,0,20.7,13.8,20.8,15.1c1.1,11.9-3,28.1-6.8,33.7c-4,5.9-9.8,8.1-13.5,8.3c-0.2,0-0.2,0-0.3,0L23,97
	c-3.8-0.2-9.6-2.4-13.6-8.3c-3.8-5.6-7.9-21.8-6.8-33.8C2.7,53.7,3.9,40,23,40z"/>
<path class="st10" d="M18.8,85c-0.2,0-0.4,0.4-0.3,0.7c0.9,2.1,2.3,3.3,4.2,3.4c2,0.2,4.1-1.2,5.2-3.4c0.1-0.3,0-0.7-0.3-0.7
	L18.8,85z"/>
<circle class="st11" cx="32" cy="69" r="2"/>
<circle class="st11" cx="14" cy="69" r="2"/>
<path class="st12" d="M18.9,66.2c-1.5-1.9-3.8-2.3-5.6-2.2c-3,0-4.3,1-4.3,1l-1.3-1.5C8,63.3,9.6,62,13.4,62c3,0,5.6,1,7.2,3
	L18.9,66.2z"/>
<path class="st13" d="M26,79.4c-1.3-1.7-3.4-5.4-2.3-10.9c0.8-4.1,4-6.5,8.6-6.5c0,0,0.1,0,0.1,0c3.8,0,5.4,1.3,5.5,1.4L36.8,65
	l0.6-0.8L36.8,65c0,0-1.3-1-4.3-1c-2.1,0-5.9,0.6-6.7,4.9c-1,4.7,0.8,7.8,1.9,9.3L26,79.4z"/>
<path class="st14" d="M-3,69.3c2.4-0.9,7.2-3.5,12-11.9c6.8-12,17.2-6.5,20.5-2.6c0.4,0.4,0.9,0.2,0.9,0.2s8.6-3.7,12,3.8
	c2.5,5.5,3.9,7.1,6.5,8.8v-7.9C49,44.2,39.5,44,39.1,44s-0.7,0-0.9-0.6C37.3,40.5,28,30.9,12.4,37S-3,65-3,65V69.3z"/>
<g>
	<defs>
		<path id="SVGID_00000109710668092849870860000001012668447156684448_" d="M-3,69.3c2.4-0.9,7.2-3.5,12-11.9
			c6.8-12,17.2-6.5,20.5-2.6c0.4,0.4,0.9,0.2,0.9,0.2s8.6-3.7,12,3.8c2.5,5.5,3.9,7.1,6.5,8.8v-7.9C49,44.2,39.5,44,39.1,44
			s-0.7,0-0.9-0.6C37.3,40.5,28,30.9,12.4,37S-3,65-3,65V69.3z"/>
	</defs>
	<clipPath id="SVGID_00000147933810704850641770000013884645036668580749_">
		<use xlink:href="#SVGID_00000109710668092849870860000001012668447156684448_"  style="overflow:visible;"/>
	</clipPath>
	<path style="clip-path:url(#SVGID_00000147933810704850641770000013884645036668580749_);fill:#2A0A00;" d="M29.8,55.6
		c0,0,3-7.5,9-12.1S50,50.9,50,50.9l0.3,19.6L29.8,55.6z"/>
</g>
</svg>
