<svg width="127" height="90" viewBox="0 0 127 90" fill="none" xmlns="http://www.w3.org/2000/svg">
<path d="M68 21.9256V8C68 5.79086 66.2893 4 64.1791 4H7.8209C5.71067 4 4 5.79086 4 8V82C4 84.2091 5.71067 86 7.8209 86H64.1791C66.2893 86 68 84.2091 68 82V69.2186" stroke="#E92828" stroke-width="4"/>
<path d="M26.704 62.92C25.216 62.92 23.884 62.788 22.708 62.524C21.556 62.284 20.644 61.9 19.972 61.372C19.324 60.868 19 60.244 19 59.5C19 58.756 19.336 58.084 20.008 57.484C20.68 56.908 21.676 56.452 22.996 56.116L23.32 56.692C22.864 57.052 22.528 57.436 22.312 57.844C22.12 58.276 22.024 58.72 22.024 59.176C22.024 60.184 22.48 60.952 23.392 61.48C24.328 62.032 25.588 62.308 27.172 62.308C28.252 62.308 29.212 62.164 30.052 61.876C30.916 61.588 31.588 61.156 32.068 60.58C32.572 60.004 32.824 59.296 32.824 58.456C32.824 57.736 32.56 57.124 32.032 56.62C31.504 56.14 30.448 55.9 28.864 55.9H26.632C25.648 55.9 24.784 55.792 24.04 55.576C23.32 55.36 22.756 55.024 22.348 54.568C21.94 54.088 21.736 53.488 21.736 52.768C21.736 51.76 22.132 50.872 22.924 50.104C23.716 49.336 24.892 48.616 26.452 47.944L26.812 48.232C26.356 48.52 25.924 48.832 25.516 49.168C25.132 49.48 24.94 49.888 24.94 50.392C24.94 51.16 25.42 51.544 26.38 51.544H30.304C31.624 51.544 32.8 51.7 33.832 52.012C34.888 52.324 35.716 52.84 36.316 53.56C36.94 54.256 37.252 55.168 37.252 56.296C37.252 57.472 36.868 58.564 36.1 59.572C35.356 60.58 34.204 61.384 32.644 61.984C31.084 62.608 29.104 62.92 26.704 62.92ZM27.064 48.484C25.696 48.484 24.472 48.28 23.392 47.872C22.312 47.464 21.46 46.84 20.836 46C20.212 45.16 19.9 44.08 19.9 42.76C19.9 41.44 20.212 40.36 20.836 39.52C21.46 38.656 22.312 38.032 23.392 37.648C24.472 37.24 25.696 37.036 27.064 37.036C28.432 37.036 29.656 37.24 30.736 37.648C31.816 38.032 32.668 38.656 33.292 39.52C33.916 40.36 34.228 41.44 34.228 42.76C34.228 44.08 33.916 45.16 33.292 46C32.668 46.84 31.816 47.464 30.736 47.872C29.656 48.28 28.432 48.484 27.064 48.484ZM27.064 47.836C27.712 47.836 28.216 47.476 28.576 46.756C28.936 46.012 29.116 44.68 29.116 42.76C29.116 40.84 28.936 39.52 28.576 38.8C28.216 38.056 27.712 37.684 27.064 37.684C26.44 37.684 25.936 38.056 25.552 38.8C25.192 39.52 25.012 40.84 25.012 42.76C25.012 44.68 25.192 46.012 25.552 46.756C25.936 47.476 26.44 47.836 27.064 47.836ZM32.68 40.132L31.96 39.88C32.32 38.944 32.896 38.164 33.688 37.54C34.504 36.916 35.38 36.604 36.316 36.604C37.084 36.604 37.66 36.82 38.044 37.252C38.452 37.66 38.656 38.2 38.656 38.872C38.656 39.592 38.464 40.132 38.08 40.492C37.696 40.828 37.264 40.996 36.784 40.996C36.376 40.996 35.992 40.852 35.632 40.564C35.296 40.276 35.104 39.844 35.056 39.268C35.008 38.668 35.212 37.9 35.668 36.964L35.92 37.18C35.008 37.516 34.324 37.912 33.868 38.368C33.412 38.8 33.016 39.388 32.68 40.132ZM44.2984 28.252C45.3064 28.252 46.0984 28.504 46.6744 29.008C47.2744 29.488 47.5744 30.16 47.5744 31.024C47.5744 31.888 47.2744 32.572 46.6744 33.076C46.0984 33.556 45.3064 33.796 44.2984 33.796C43.2904 33.796 42.4864 33.556 41.8864 33.076C41.3104 32.572 41.0224 31.888 41.0224 31.024C41.0224 30.16 41.3104 29.488 41.8864 29.008C42.4864 28.504 43.2904 28.252 44.2984 28.252ZM47.1064 37.144V52.804C47.1064 53.812 47.2744 54.496 47.6104 54.856C47.9704 55.216 48.5704 55.396 49.4104 55.396V56.152C48.9784 56.128 48.3064 56.104 47.3944 56.08C46.4824 56.032 45.5584 56.008 44.6224 56.008C43.6864 56.008 42.7384 56.032 41.7784 56.08C40.8184 56.104 40.0984 56.128 39.6184 56.152V55.396C40.4584 55.396 41.0464 55.216 41.3824 54.856C41.7424 54.496 41.9224 53.812 41.9224 52.804V41.464C41.9224 40.384 41.7544 39.592 41.4184 39.088C41.1064 38.56 40.5064 38.296 39.6184 38.296V37.54C40.3864 37.612 41.1304 37.648 41.8504 37.648C42.8584 37.648 43.7944 37.612 44.6584 37.54C45.5464 37.444 46.3624 37.312 47.1064 37.144ZM60.4779 28C61.3179 28 62.0499 28.108 62.6739 28.324C63.2979 28.54 63.8499 28.828 64.3299 29.188C64.6659 29.452 64.9539 29.824 65.1939 30.304C65.4339 30.76 65.5539 31.288 65.5539 31.888C65.5539 32.536 65.3139 33.112 64.8339 33.616C64.3779 34.12 63.7659 34.372 62.9979 34.372C62.2059 34.372 61.5459 34.144 61.0179 33.688C60.5139 33.232 60.2619 32.608 60.2619 31.816C60.2619 31.192 60.4419 30.64 60.8019 30.16C61.1619 29.68 61.6899 29.344 62.3859 29.152C62.3139 29.008 62.1699 28.888 61.9539 28.792C61.7379 28.696 61.4499 28.648 61.0899 28.648C60.6099 28.648 60.2139 28.732 59.9019 28.9C59.5899 29.068 59.3379 29.296 59.1459 29.584C58.8819 29.944 58.7019 30.472 58.6059 31.168C58.5099 31.84 58.4619 32.884 58.4619 34.3V37.576H62.3139V38.296H58.4619V52.444C58.4619 53.62 58.7619 54.412 59.3619 54.82C59.9619 55.204 60.7899 55.396 61.8459 55.396V56.152C61.2219 56.128 60.3459 56.104 59.2179 56.08C58.0899 56.032 56.9019 56.008 55.6539 56.008C54.7419 56.008 53.8419 56.032 52.9539 56.08C52.0899 56.104 51.4299 56.128 50.9739 56.152V55.396C51.8139 55.396 52.4019 55.216 52.7379 54.856C53.0979 54.496 53.2779 53.812 53.2779 52.804V38.296H50.8299V37.576H53.2779C53.2779 36.16 53.3499 34.984 53.4939 34.048C53.6379 33.088 53.8779 32.272 54.2139 31.6C54.5499 30.928 54.9939 30.328 55.5459 29.8C56.0739 29.296 56.7699 28.876 57.6339 28.54C58.5219 28.18 59.4699 28 60.4779 28ZM70.9382 31.636V37.54H75.1862V38.26H70.9382V52.804C70.9382 53.524 71.0702 54.04 71.3342 54.352C71.5982 54.64 71.9942 54.784 72.5222 54.784C72.9542 54.784 73.3862 54.628 73.8182 54.316C74.2502 53.98 74.6342 53.416 74.9702 52.624L75.5822 52.948C75.1982 54.028 74.6102 54.916 73.8182 55.612C73.0502 56.308 71.9942 56.656 70.6502 56.656C69.8582 56.656 69.1622 56.548 68.5622 56.332C67.9622 56.14 67.4582 55.84 67.0502 55.432C66.5222 54.904 66.1742 54.256 66.0062 53.488C65.8382 52.696 65.7542 51.676 65.7542 50.428V38.26H62.7302V37.54H65.7542V32.788C66.7622 32.788 67.6862 32.704 68.5262 32.536C69.3902 32.344 70.1942 32.044 70.9382 31.636ZM85.7904 28C86.6304 28 87.3624 28.108 87.9864 28.324C88.6104 28.54 89.1624 28.828 89.6424 29.188C89.9784 29.452 90.2664 29.824 90.5064 30.304C90.7464 30.76 90.8664 31.288 90.8664 31.888C90.8664 32.536 90.6264 33.112 90.1464 33.616C89.6904 34.12 89.0784 34.372 88.3104 34.372C87.5184 34.372 86.8584 34.144 86.3304 33.688C85.8264 33.232 85.5744 32.608 85.5744 31.816C85.5744 31.192 85.7544 30.64 86.1144 30.16C86.4744 29.68 87.0024 29.344 87.6984 29.152C87.6264 29.008 87.4824 28.888 87.2664 28.792C87.0504 28.696 86.7624 28.648 86.4024 28.648C85.9224 28.648 85.5264 28.732 85.2144 28.9C84.9024 29.068 84.6504 29.296 84.4584 29.584C84.1944 29.944 84.0144 30.472 83.9184 31.168C83.8224 31.84 83.7744 32.884 83.7744 34.3V37.576H87.6264V38.296H83.7744V52.444C83.7744 53.62 84.0744 54.412 84.6744 54.82C85.2744 55.204 86.1024 55.396 87.1584 55.396V56.152C86.5344 56.128 85.6584 56.104 84.5304 56.08C83.4024 56.032 82.2144 56.008 80.9664 56.008C80.0544 56.008 79.1544 56.032 78.2664 56.08C77.4024 56.104 76.7424 56.128 76.2864 56.152V55.396C77.1264 55.396 77.7144 55.216 78.0504 54.856C78.4104 54.496 78.5904 53.812 78.5904 52.804V38.296H76.1424V37.576H78.5904C78.5904 36.16 78.6624 34.984 78.8064 34.048C78.9504 33.088 79.1904 32.272 79.5264 31.6C79.8624 30.928 80.3064 30.328 80.8584 29.8C81.3864 29.296 82.0824 28.876 82.9464 28.54C83.8344 28.18 84.7824 28 85.7904 28ZM97.5978 37.036C99.35 37.036 100.886 37.36 102.206 38.008C103.526 38.656 104.558 39.7 105.302 41.14C106.046 42.58 106.418 44.488 106.418 46.864C106.418 49.24 106.046 51.148 105.302 52.588C104.558 54.004 103.526 55.036 102.206 55.684C100.886 56.332 99.35 56.656 97.5978 56.656C95.8938 56.656 94.3698 56.332 93.0258 55.684C91.7058 55.036 90.6618 54.004 89.8938 52.588C89.1498 51.148 88.7778 49.24 88.7778 46.864C88.7778 44.488 89.1498 42.58 89.8938 41.14C90.6618 39.7 91.7058 38.656 93.0258 38.008C94.3698 37.36 95.8938 37.036 97.5978 37.036ZM97.5978 37.756C96.6378 37.756 95.8338 38.476 95.1858 39.916C94.5378 41.332 94.2138 43.648 94.2138 46.864C94.2138 50.08 94.5378 52.396 95.1858 53.812C95.8338 55.228 96.6378 55.936 97.5978 55.936C98.582 55.936 99.386 55.228 100.01 53.812C100.658 52.396 100.982 50.08 100.982 46.864C100.982 43.648 100.658 41.332 100.01 39.916C99.386 38.476 98.582 37.756 97.5978 37.756ZM121.049 37.036C121.817 37.036 122.441 37.204 122.921 37.54C123.401 37.852 123.749 38.26 123.965 38.764C124.205 39.268 124.325 39.796 124.325 40.348C124.325 41.236 124.061 41.968 123.533 42.544C123.029 43.096 122.357 43.372 121.517 43.372C120.677 43.372 120.017 43.168 119.537 42.76C119.081 42.328 118.853 41.764 118.853 41.068C118.853 40.396 118.997 39.844 119.285 39.412C119.597 38.956 119.981 38.572 120.437 38.26C120.101 38.164 119.765 38.176 119.429 38.296C118.973 38.368 118.541 38.56 118.133 38.872C117.725 39.16 117.377 39.532 117.089 39.988C116.801 40.42 116.573 40.9 116.405 41.428C116.237 41.932 116.153 42.424 116.153 42.904V52.444C116.153 53.596 116.429 54.376 116.981 54.784C117.557 55.192 118.409 55.396 119.537 55.396V56.152C118.985 56.128 118.181 56.104 117.125 56.08C116.069 56.032 114.965 56.008 113.813 56.008C112.853 56.008 111.881 56.032 110.897 56.08C109.913 56.104 109.169 56.128 108.665 56.152V55.396C109.505 55.396 110.093 55.216 110.429 54.856C110.789 54.496 110.969 53.812 110.969 52.804V41.464C110.969 40.384 110.801 39.592 110.465 39.088C110.153 38.56 109.553 38.296 108.665 38.296V37.54C109.433 37.612 110.177 37.648 110.897 37.648C111.905 37.648 112.841 37.612 113.705 37.54C114.593 37.444 115.409 37.312 116.153 37.144V40.492C116.441 39.844 116.825 39.256 117.305 38.728C117.785 38.2 118.337 37.792 118.961 37.504C119.585 37.192 120.281 37.036 121.049 37.036Z" fill="#E92828"/>
</svg>
