<?xml version="1.0" encoding="utf-8"?>
<!-- Generator: Adobe Illustrator 25.4.1, SVG Export Plug-In . SVG Version: 6.00 Build 0)  -->
<svg version="1.1" id="malecostume_1_" xmlns:sketch="http://www.bohemiancoding.com/sketch/ns"
	 xmlns="http://www.w3.org/2000/svg" xmlns:xlink="http://www.w3.org/1999/xlink" x="0px" y="0px" viewBox="0 0 100 100"
	 style="enable-background:new 0 0 100 100;" xml:space="preserve">
<style type="text/css">
	.st0{fill:#FF2A2A;}
	.st1{clip-path:url(#SVGID_00000139997736405205066720000004900480512398035117_);fill:#D4B08C;}
	.st2{clip-path:url(#SVGID_00000075150532855384303840000010870347484412422298_);}
	.st3{clip-path:url(#SVGID_00000150076142945555817040000009825594991243294865_);fill:#1E1E23;}
	.st4{clip-path:url(#SVGID_00000002372397853638768270000014196916026528567734_);fill:#C1CAD4;}
	.st5{clip-path:url(#SVGID_00000163057335233922490690000014806374219344782997_);fill:#E92828;}
	.st6{clip-path:url(#SVGID_00000035501894341222633990000010769799656932054951_);fill:#FF2828;}
	.st7{clip-path:url(#SVGID_00000133506326165803854060000001431384719374348436_);fill:#FFFFFF;}
	.st8{fill:#F2CEA5;}
	.st9{fill:#A3705F;}
	.st10{fill:#262626;}
	.st11{fill:#CC9872;}
	.st12{fill:#BB8660;}
	.st13{fill:#1F0300;}
</style>
<circle class="st0" cx="50" cy="50" r="50"/>
<g>
	<g>
		<defs>
			<circle id="SVGID_1_" cx="50" cy="50" r="50"/>
		</defs>
		<clipPath id="SVGID_00000003796882116929156690000010540037773195554215_">
			<use xlink:href="#SVGID_1_"  style="overflow:visible;"/>
		</clipPath>
		<path style="clip-path:url(#SVGID_00000003796882116929156690000010540037773195554215_);fill:#D4B08C;" d="M65,75.9l27.9,7.7
			c3.2,1.1,5.7,3.5,7.1,6.6v9.8H0v-9.8c1.3-3.1,3.9-5.5,7.1-6.6L35,75.9V61h30V75.9z"/>
	</g>
	<g>
		<defs>
			<circle id="SVGID_00000147209769625848916470000004958524537878334336_" cx="50" cy="50" r="50"/>
		</defs>
		<clipPath id="SVGID_00000173863909716751486980000015200061344721066926_">
			<use xlink:href="#SVGID_00000147209769625848916470000004958524537878334336_"  style="overflow:visible;"/>
		</clipPath>
		<g style="clip-path:url(#SVGID_00000173863909716751486980000015200061344721066926_);">
			<g>
				<defs>
					<path id="SVGID_00000095310409563635387160000001238904942383623355_" d="M65,75.9l27.9,7.7c3.2,1.1,5.7,3.5,7.1,6.6v9.8H0
						v-9.8c1.3-3.1,3.9-5.5,7.1-6.6L35,75.9V61h30V75.9z"/>
				</defs>
				<clipPath id="SVGID_00000150818664151899175550000002524377589303289225_">
					<use xlink:href="#SVGID_00000095310409563635387160000001238904942383623355_"  style="overflow:visible;"/>
				</clipPath>
				<polygon style="clip-path:url(#SVGID_00000150818664151899175550000002524377589303289225_);fill:#1E1E23;" points="50.2,80 
					43,80 38.2,75 0,75 0,100 50.2,100 100.3,100 100.3,75 62.2,75 57.4,80 				"/>
			</g>
			<g>
				<defs>
					<path id="SVGID_00000145749529237265958090000001901793787573521039_" d="M65,75.9l27.9,7.7c3.2,1.1,5.7,3.5,7.1,6.6v9.8H0
						v-9.8c1.3-3.1,3.9-5.5,7.1-6.6L35,75.9V61h30V75.9z"/>
				</defs>
				<clipPath id="SVGID_00000098918115770685452390000011734860993771415434_">
					<use xlink:href="#SVGID_00000145749529237265958090000001901793787573521039_"  style="overflow:visible;"/>
				</clipPath>
				<polygon style="clip-path:url(#SVGID_00000098918115770685452390000011734860993771415434_);fill:#C1CAD4;" points="50,80 
					51,80 65.7,72.3 59.9,101.2 50,100.1 40.1,101.2 34.3,72.3 49,80 				"/>
			</g>
			<g>
				<defs>
					<path id="SVGID_00000111150993223521238980000002246963053160491429_" d="M65,75.9l27.9,7.7c3.2,1.1,5.7,3.5,7.1,6.6v9.8H0
						v-9.8c1.3-3.1,3.9-5.5,7.1-6.6L35,75.9V61h30V75.9z"/>
				</defs>
				<clipPath id="SVGID_00000029746247990907043880000000690483315123569047_">
					<use xlink:href="#SVGID_00000111150993223521238980000002246963053160491429_"  style="overflow:visible;"/>
				</clipPath>
				<polygon style="clip-path:url(#SVGID_00000029746247990907043880000000690483315123569047_);fill:#E92828;" points="47.5,89 
					52.5,89 56.5,101 43.5,101 				"/>
			</g>
			<g>
				<defs>
					<path id="SVGID_00000118378070116494137730000016640795678271291288_" d="M65,75.9l27.9,7.7c3.2,1.1,5.7,3.5,7.1,6.6v9.8H0
						v-9.8c1.3-3.1,3.9-5.5,7.1-6.6L35,75.9V61h30V75.9z"/>
				</defs>
				<clipPath id="SVGID_00000032631657342559803990000000516352715427678371_">
					<use xlink:href="#SVGID_00000118378070116494137730000016640795678271291288_"  style="overflow:visible;"/>
				</clipPath>
				<polygon style="clip-path:url(#SVGID_00000032631657342559803990000000516352715427678371_);fill:#FF2828;" points="39.5,80 
					60.5,80 52.5,89 47.5,89 				"/>
			</g>
			<g>
				<defs>
					<path id="SVGID_00000013161015192986343570000003395217874405811850_" d="M65,75.9l27.9,7.7c3.2,1.1,5.7,3.5,7.1,6.6v9.8H0
						v-9.8c1.3-3.1,3.9-5.5,7.1-6.6L35,75.9V61h30V75.9z"/>
				</defs>
				<clipPath id="SVGID_00000016054519859186665650000013146193091466766985_">
					<use xlink:href="#SVGID_00000013161015192986343570000003395217874405811850_"  style="overflow:visible;"/>
				</clipPath>
				<path style="clip-path:url(#SVGID_00000016054519859186665650000013146193091466766985_);fill:#FFFFFF;" d="M65.5,70L51.1,80
					l10.8,11L66,71L65.5,70z M34.5,70l14.4,10L38.1,91L34,71L34.5,70z"/>
			</g>
		</g>
	</g>
</g>
<path class="st8" d="M50,74c-1.5,0-3.5-0.3-4.8-0.9c-1.6-0.7-7.2-4.6-9.1-6.3c-2.5-2.3-3.8-5.1-4.2-10C31.5,51.9,30,34.5,30,30.5
	C30,24.8,35.1,16,50,16l0,0l0,0l0,0l0,0c14.8,0,19.9,8.8,19.9,14.5c0,4-1.5,21.5-1.9,26.4s-1.6,7.7-4.2,10c-1.9,1.7-7.6,5.6-9.1,6.3
	C53.5,73.7,51.5,74,50,74L50,74z"/>
<path class="st9" d="M57,60H43c-0.4,0-0.6,0.4-0.4,0.8c1.3,2.3,3.7,3.5,6.7,3.7c3.1,0.2,6.5-1.3,8.1-3.7C57.6,60.5,57.4,60,57,60z"
	/>
<circle class="st10" cx="59" cy="45" r="2"/>
<circle class="st10" cx="41" cy="45" r="2"/>
<path class="st11" d="M46.6,42.5c-0.5-0.8-1.9-2.5-5.5-2.5C37,40,36,42.3,36,42.4l-1.9-0.7c0.1-0.1,1.4-3.6,7-3.6
	c4.6,0,6.6,2.4,7.2,3.5L46.6,42.5z"/>
<path class="st12" d="M51,53c0-0.3,0-7.1,0-9c0-2.5,2.5-5.9,8-6c5.5,0,6.9,3.5,7,3.6l-1.9,0.7c0-0.1-1-2.3-5.1-2.4c-4.1,0-6,2.4-6,4
	c0,1.9,0,8.9,0,9L51,53z"/>
<path d="M68.8,48.2c0,0,0.8-6.3,3.7-7.2c0.4-1.8,1.5-7,1.5-9.9s-0.3-5.7-1.9-8.1c-1.8-2.6-5.6-4.1-7.6-4.1c-2.3,1.4-7.7,4.6-9.4,6.5
	c-0.9,1,0.4,1.8,0.4,1.8s1.2-0.5,1.7-0.6c2.5-0.7,8-1.2,9.7,1.3C69,30.9,69,39.7,69,41C69,42.2,68.8,48.2,68.8,48.2z"/>
<path class="st13" d="M27.5,41c2.9,1,3.7,7.2,3.7,7.2S31,42.2,31,41c0-1.6,0.2-9.1,3.4-12.7c3.6-4,8.4-5.3,11.1-3.5
	c1.4,0.9,6.1,5.5,11.1,1.7c3-2.3,8.5-7.5,8.5-7.5s-2.9-8.9-16.1-7.9c-5.6,0.5-11.8-0.9-11.8-0.9s-0.1,2.5,0.9,3.8
	c-8.3,2.4-11,8.4-11.8,13c-0.2,0.9-0.3,1.8-0.3,2.7c0,0.5,0,1,0,1.4C26,34,27.1,39.1,27.5,41z"/>
</svg>
